<svg version="1.1" xmlns="http://www.w3.org/2000/svg" xmlns:xlink="http://www.w3.org/1999/xlink" width="108.30544" height="106.5358" viewBox="0,0,108.30544,106.5358"><g transform="translate(-194.43002,-130.50077)"><g data-paper-data="{&quot;isPaintingLayer&quot;:true}" stroke-miterlimit="10" stroke-dasharray="" stroke-dashoffset="0" style="mix-blend-mode: normal"><path d="M286.9,161.5c-4.7,3.8 -11.9,3.9 -11.9,3.9" fill="none" fill-rule="evenodd" stroke="#001026" stroke-width="1.2" stroke-linecap="round" stroke-linejoin="round"/><path d="M219,170.6c-4.3,1.7 -11.7,0.6 -11.7,0.6" fill="none" fill-rule="evenodd" stroke="#001026" stroke-width="1.2" stroke-linecap="round" stroke-linejoin="round"/><path d="M206.6,161.2c0,0 8.6,2.8 12.1,5.9" fill="none" fill-rule="evenodd" stroke="#001026" stroke-width="1.2" stroke-linecap="round" stroke-linejoin="round"/><path d="M234.73039,207.94272c-0.09475,2.16125 -0.20592,9.76307 -2.85435,17.61456l-0.15555,0.38184c-0.15555,0.38184 0.12981,0.83854 0.57071,0.91339c2.94073,0.04564 8.64502,0.379 6.76849,5.8213c-1.75841,5.28091 -18.98354,4.94218 -19.48872,-0.6323c-0.00758,-2.36007 1.56133,-3.31847 2.41566,-3.80849c0.4567,-0.28536 0.752,-0.68883 0.96661,-1.15137c0.38595,-1.20459 1.03973,-3.45239 1.3175,-5.35576c0.76432,-4.76926 0.62867,-6.10776 0.59945,-8.60759c-0.02921,-2.49983 -0.29815,-8.39709 4.46937,-9.49288c4.06874,-0.98761 5.42651,2.23674 5.39082,4.3173z" fill="#ffab19" fill-rule="evenodd" stroke="#001026" stroke-width="1.2" stroke-linecap="round" stroke-linejoin="round"/><path d="M245.6,190.7c0.5,0.4 6.6,7.6 8.6,5.8c2.4,-2.1 5.7,-6.2 9.3,-2.9c3.6,3.3 -3.2,8.9 -6.1,10.4c-6.9,3.1 -12.5,-2.8 -13.7,-4.4c-1.2,-1.6 -3.3,-4.3 -3.3,-6.9c0.1,-2.8 3.5,-3.5 5.2,-2z" fill="#ffab19" fill-rule="evenodd" stroke="#001026" stroke-width="1.2" stroke-linecap="round" stroke-linejoin="round"/><path d="M247.7719,210.57759c-7.82663,-2.68213 -18.31437,-1.30037 -18.31437,-1.30037c-11.2515,-3.81365 -6.54051,-9.95096 -6.179,-15.44636c0.48352,-4.77768 1.82118,-4.53136 7.75083,-6.04107c3.28238,-1.01783 5.21573,-1.61126 7.15667,-2.65183c2.933,-1.51576 4.46543,3.07244 4.73372,5.71593c0,0 0.33574,3.94174 -0.01592,6.21689c-0.44942,2.7655 -0.17647,3.7263 -0.86993,5.05639l9.01102,1.20477c-0.99677,2.45285 -2.13285,4.83861 -2.93747,7.36693c-0.11669,-0.0445 -0.22881,-0.08519 -0.33557,-0.12128z" fill="#ffab19" fill-rule="nonzero" stroke="#001026" stroke-width="1.2" stroke-linecap="butt" stroke-linejoin="miter"/><path d="M286.86387,216.01245c0,0 12.29308,-7.72141 15.01549,-1.05594c1.62588,3.98076 -4.66148,7.62893 -13.98165,10.46344c-0.59326,0.13429 -1.22435,0.17601 -1.83847,-0.00524c-2.06194,-0.69386 -2.16176,-4.16224 -6.47446,-5.9564c0.84408,-2.4836 2.10751,-4.79957 3.2815,-7.16196c2.07286,1.66245 3.99759,3.71609 3.99759,3.71609z" fill="#ffab19" fill-rule="nonzero" stroke="#001026" stroke-width="1.2" stroke-linecap="butt" stroke-linejoin="miter"/><path d="M236.01111,207.11556c0,0 -1.5,-1.2 -3.1,-2.7c-2,-1.8 -4,-3.3 -2,-6.4c1.8,-2.4 3.5,-5.6 8,-2.7c4.3,2.7 2.4,5.2 2.4,5.2c-2.2,4.5 -5.3,6.6 -5.3,6.6z" fill="#ffffff" fill-rule="evenodd" stroke="none" stroke-width="1" stroke-linecap="butt" stroke-linejoin="miter"/><path d="M222.2,198.4c2.2,2.8 5.6,6.3 1.3,9.2c-5.9,3.3 -10.8,-6.7 -11.8,-10.2c-0.9,-3.1 1.7,-5.1 3.9,-6.8c4.3,-3.1 7.9,-5.9 11.9,-4.4c5,1.8 1.4,5.8 -1.1,7.6c-1.5,1.1 -3,2.3 -4.1,3c-0.3,0.5 -0.4,1.1 -0.1,1.6z" fill="#ffab19" fill-rule="evenodd" stroke="#001026" stroke-width="1.2" stroke-linecap="round" stroke-linejoin="round"/><path d="M253.7,131c0.3,-0.2 0.8,-0.1 0.9,0.3l2.6,10.7c0,0 6.4,4.7 8.3,8c3.2,5.5 3.3,10 3.3,10c0,0 7.1,2.1 8.3,7.8c1.2,5.7 -3.2,16.5 -22,20.2c-18.8,3.7 -33.9,-1.4 -41,-12.8c-7.1,-11.4 4.1,-25 3.5,-24.2l-2.1,-17.9c-0.1,-0.4 0.4,-0.7 0.8,-0.5l12.1,7.9c0,0 4.5,-1.7 9.2,-1.9c2.8,-0.2 5.2,0 7.5,0.4z" fill="#ffab19" fill-rule="evenodd" stroke="#001026" stroke-width="1.2" stroke-linecap="butt" stroke-linejoin="miter"/><path d="M285.59999,172.7c-6.3,0.5 -10.2,-1.4 -10.2,-1.4" fill="none" fill-rule="evenodd" stroke="#001026" stroke-width="1.2" stroke-linecap="round" stroke-linejoin="round"/><path d="M271.16559,216.21063c0,-0.01299 0.00022,-0.02577 0.00067,-0.03832c-2.88711,-0.32158 -5.73644,-1.00874 -8.31876,-2.29281c-2.4284,-0.72217 -4.78238,-1.98609 -7.27666,-2.43453c-1.09216,-0.19636 -2.38815,0.22541 -3.45055,-0.28023c-2.08072,-0.99032 -2.49479,-3.34751 -1.35468,-4.96914c0.02086,-0.13117 0.08688,-0.27235 0.22805,-0.41352c0.12262,-0.12262 0.24524,-0.18854 0.3613,-0.21741c0.18162,-0.11055 0.59578,-0.28223 0.96371,0.14703c0.11893,0.13875 0.17507,0.27267 0.19196,0.39588c1.26513,0.59384 4.09175,0.43797 5.35751,0.59619c2.62982,0.7451 5.33697,0.06831 7.88921,0.67692c4.39674,1.04845 7.95522,2.81499 11.90997,4.87583c0.62855,0.73147 3.35469,2.59145 2.63815,3.81634c-0.30878,0.52783 -2.19646,0.46836 -3.48108,0.39512c0.00364,0.01673 0.00694,0.03394 0.00989,0.05165c0.1233,0.73979 -0.6165,0.86309 -0.6165,0.86309c-1.5367,0.23866 -2.70233,-0.4232 -4.23013,-0.42209h-0.07205c0,0 -0.75,0 -0.75,-0.75z" fill="#ffab19" fill-rule="nonzero" stroke="none" stroke-width="0.5" stroke-linecap="butt" stroke-linejoin="miter"/><path d="M252.2196,206.19987c0.0679,-0.74692 0.81482,-0.67901 0.81482,-0.67901l0.84319,0.0784c1.94991,0.45681 4.18586,-0.22557 6.29388,-0.22557c0,0 0.67194,0 0.74379,0.63602c2.35105,0.22144 4.66186,0.76305 7.03647,2.04934l0.24324,0.20014c0,0 0.53033,0.53033 0,1.06066c-0.50042,0.50042 -1.00083,0.05645 -1.05569,0.00477c-4.59542,-2.48147 -9.1182,-1.98367 -14.10073,-1.9466c0,0 -0.75,0 -0.75,-0.75c0,-0.00064 0.00001,-0.00128 0.00001,-0.00191c-0.05512,-0.10909 -0.08514,-0.24842 -0.06897,-0.42624z" fill="#ffab19" fill-rule="nonzero" stroke="none" stroke-width="0.5" stroke-linecap="butt" stroke-linejoin="miter"/><path d="M252.19995,210.61674c-0.53033,0.53033 -1.06066,0 -1.06066,0l0.02709,-0.01601c-0.2629,-0.1773 -0.6483,-0.28426 -0.9384,-0.1562c0,0 -0.71837,0.21551 -0.93388,-0.50286c-0.21551,-0.71837 0.50286,-0.93388 0.50286,-0.93388c0.68251,-0.16408 1.45587,-0.02975 2.08769,0.27609l0.31529,0.27219c0,0 0.53033,0.53033 0,1.06066z" fill="#ffab19" fill-rule="nonzero" stroke="none" stroke-width="0.5" stroke-linecap="butt" stroke-linejoin="miter"/><path d="M253.00906,210.87895c0,-0.75 0.75,-0.75 0.75,-0.75l0.47245,0.04515c0.75712,0.2825 1.46093,0.32755 2.2555,0.47129c0,0 0.7379,0.13416 0.60374,0.87206c-0.13416,0.7379 -0.87207,0.60374 -0.87207,0.60374c-0.88083,-0.16103 -1.64974,-0.23467 -2.49979,-0.5374l0.04016,0.04515c0,0 -0.75,0 -0.75,-0.75z" fill="#ffab19" fill-rule="nonzero" stroke="none" stroke-width="0.5" stroke-linecap="butt" stroke-linejoin="miter"/><path d="M284.97733,215.20843l0.19564,-0.07826l0.33386,0.83465c0.03859,0.09037 0.05996,0.18986 0.05996,0.29434c0,0.41422 -0.33578,0.75 -0.75,0.75c-0.20711,0 -0.39461,-0.08394 -0.53033,-0.21967l-0.07544,-0.07544c-0.11879,0.07899 -0.26141,0.12502 -0.41476,0.12502c-0.06939,0 -0.13658,-0.00942 -0.20036,-0.02706c0.25279,0.09285 0.51198,0.19948 0.77988,0.32189l-1.93675,0.79652c-0.00944,0.00168 -0.01887,0.00338 -0.02832,0.00509c0.0602,0.10796 0.09449,0.23233 0.09449,0.36471c0,0.04162 -0.00339,0.08246 -0.00991,0.12223c0.7729,0.08162 1.59925,-0.0075 2.46858,0.16286c0,0 0.73544,0.14709 0.58835,0.88253c-0.14709,0.73543 -0.88253,0.58835 -0.88253,0.58835c-1.63022,-0.33385 -2.98659,0.17122 -4.36976,-0.86964l-0.86701,-0.1445c-0.08527,-0.01266 -0.16586,-0.03969 -0.23924,-0.07853c-0.12971,0.22404 -0.37202,0.37476 -0.64953,0.37476c-0.24498,0 -0.46253,-0.11746 -0.5994,-0.29914c-0.01315,-0.00018 -0.02629,-0.00058 -0.03943,-0.00122c-1.01277,-0.04939 -3.71717,-0.61889 -4.64024,-0.99049c-0.46136,-0.18573 -0.7369,-0.54495 -1.03417,-0.86864l-0.59388,0.1605c-0.72435,-0.29215 -1.12133,-0.64326 -1.84236,-0.66767l-0.18469,0.00081c0,0 -0.35114,0 -0.57289,-0.24026c-0.24995,-0.00477 -0.49266,-0.02061 -0.72054,-0.06124c-1.80471,-0.36191 -3.81878,-1.52983 -5.54715,-1.64692l-0.14526,0.06056c0,0 -0.73543,0.14709 -0.88252,-0.58835c-0.00718,-0.0359 -0.01226,-0.07039 -0.01542,-0.10353c-4.08017,-0.05367 -7.97038,-2.86517 -11.93342,-3.31022c-0.42854,0.06476 -0.8805,0.10262 -1.37486,0.10351h-0.51027c0,0 -0.75,0 -0.75,-0.75c0,-0.59162 0.46669,-0.71655 0.66379,-0.74294c-0.11596,-0.17868 -0.22088,-0.36518 -0.30908,-0.55268c-0.73164,-0.42887 -1.42992,-1.01135 -2.01606,-1.52623h-0.65024v0c-0.41422,0 -0.75,-0.33578 -0.75,-0.75c0,-0.3861 0.29177,-0.70408 0.66685,-0.74545l1.35083,-0.16885l0.03444,0.27555c0.00269,-0.00053 0.00537,-0.00106 0.00806,-0.00158c0.09144,-0.05591 0.1958,-0.09279 0.30755,-0.10512l1.35084,-0.16885l0.00205,0.01642l0.04437,-0.02077c0.21026,-0.00028 0.42051,-0.00052 0.63077,-0.0007c-0.09028,-0.12384 -0.14355,-0.27638 -0.14355,-0.44136c0,-0.27283 0.14568,-0.51165 0.36351,-0.64288l1.26099,-0.78812l0.09842,0.15747c1.37757,-0.97383 2.73981,-1.06441 4.60881,0.2335c0.49179,0.06323 0.9508,0.16066 1.33668,0.3033c0.45443,0.00379 0.89923,0.07952 1.3402,0.19657c0.0191,0.00064 0.0382,0.00132 0.05731,0.00203c0.26596,-0.04565 0.53236,-0.07711 0.80058,-0.08408c0.50361,-0.01307 0.97859,0.1164 1.45381,0.27818c0.87083,0.10855 1.74507,0.24606 2.61659,0.37724c1.47976,-1.0854 2.56674,-0.01934 3.89411,0.62563c0.20139,0.07238 0.40122,0.15584 0.59966,0.24787c0.09776,0.03234 0.19713,0.06086 0.2983,0.08469c2.14742,0.50586 5.27023,0.74361 7.2369,1.94877c1.00822,0.61783 1.58567,1.59589 2.71578,2.04245c1.61633,0.63869 3.31013,0.88424 4.86642,1.63158c0.01671,0.18659 0.00934,0.41191 -0.01953,0.66596c1.60573,0.54855 2.64732,1.22919 3.10051,2.72484zM283.26593,216.61939l-0.53033,-0.53033c-0.11915,0.1191 -0.25755,0.21021 -0.40767,0.27429c-0.00355,0.02554 -0.00839,0.05067 -0.01445,0.07532c0.0004,0.00044 0.00079,0.00088 0.00119,0.00133c0.38216,0.08187 0.77028,0.19016 1.17409,0.33333c-0.08352,-0.03759 -0.15892,-0.09003 -0.22284,-0.15394zM277.76771,214.43478c0.11872,0.13994 0.19743,0.34672 0.12272,0.64557c-0.1819,0.72761 -0.9095,0.5457 -0.9095,0.5457l-0.83387,-0.22687c-0.5574,-0.27919 -1.92937,-0.88188 -1.94538,-1.52126c-0.00912,-0.36443 0.15055,-0.66185 0.41604,-0.90422c-1.28115,-0.96672 -2.52541,-2.37284 -4.01861,-2.64844c-1.05244,-0.63915 -2.10808,-0.45539 -3.16875,-1.07207c-1.33559,-0.77652 -2.47258,-1.80055 -4.11858,-1.94271c-0.94108,-0.08128 -2.10471,0.21496 -3.01779,-0.02357c-0.87205,-0.2278 -1.83509,-0.77261 -2.80671,-1.10302c-0.23034,0.04208 -0.45978,0.09182 -0.6895,0.14389c-0.86714,0.60068 -3.09516,0.98285 -3.64077,1.25633c-0.22297,0.11176 -0.48938,0.24069 -0.76896,0.38383c0.15391,0.13972 0.30732,0.28585 0.46034,0.43828l0.59834,0.43937c0.18986,0.13608 0.31357,0.3586 0.31357,0.61002c0,0.32847 -0.21115,0.60762 -0.50512,0.70911c1.06422,0.39172 2.13765,0.85247 3.21213,1.26866c0.00072,-0.01503 0.00179,-0.03034 0.00321,-0.04595c0.0679,-0.74692 0.81482,-0.67902 0.81482,-0.67902c2.1146,0.21079 4.69797,1.27072 6.53103,2.41977l0.10468,-0.03064c0,0 0.44701,0.0894 0.57433,0.4773c1.35382,0.411 2.7208,1.04714 4.10244,1.32268c1.11236,0.20696 2.39194,-0.10252 3.45458,0.3295c0.84735,0.34449 1.27308,0.82305 1.79237,1.19215c0.22602,-0.4656 0.78789,-0.37195 0.78789,-0.37195l0.58754,0.11549c0.33139,0.13401 0.66227,0.23892 0.99258,0.33931c-0.00246,-0.02475 -0.00373,-0.04986 -0.00373,-0.07525c0,-0.41422 0.33578,-0.75 0.75,-0.75c0.10448,0 0.20396,0.02136 0.29433,0.05996l0.28148,0.11259h0.78398c0.32971,-0.30962 0.70319,-0.62102 0.97856,-0.96512c-0.47888,-0.12779 -1.00775,-0.28163 -1.5297,-0.44943zM274.64894,211.18886c0.39576,0.23617 0.83874,0.48594 1.30901,0.73294c-0.44064,-0.32169 -0.84725,-0.63013 -1.18172,-0.82949c-0.2453,-0.14621 -0.50785,-0.26194 -0.78205,-0.35735c0.20526,0.16028 0.42073,0.31423 0.65477,0.4539zM251.88935,206.39404c0,0.0299 -0.00119,0.05861 -0.00348,0.08617c0.11515,-0.06151 0.23071,-0.12144 0.34589,-0.1796c-0.1229,-0.01709 -0.24057,-0.02589 -0.34887,-0.02276c0.00422,0.03658 0.00646,0.07528 0.00646,0.1162zM273.55181,209.43543c-0.08063,-0.05064 -0.16356,-0.0993 -0.24858,-0.14611c0.00489,0.03199 0.0082,0.06569 0.00977,0.10118c0.11016,0.03478 0.22053,0.06915 0.33107,0.10324c-0.03067,-0.01951 -0.06142,-0.03895 -0.09226,-0.05831z" fill="#ffab19" fill-rule="nonzero" stroke="none" stroke-width="0.5" stroke-linecap="butt" stroke-linejoin="miter"/><path d="M279.761,218.83502l-10.77866,-2.67956l-12.64679,-3.14397l-9.49598,-2.36069z" fill="none" fill-rule="nonzero" stroke="#000000" stroke-width="1.5" stroke-linecap="round" stroke-linejoin="miter"/><path d="M251.09174,203.73822l13.66224,1.03111l18.8178,7.99112z" fill="none" fill-rule="nonzero" stroke="#000000" stroke-width="1.5" stroke-linecap="round" stroke-linejoin="miter"/><path d="M259.27036,205.24845l0.01497,-0.17957l0.79942,0.06662c0.23852,0.01736 0.4461,0.14626 0.57079,0.33479c0.08899,0.00496 0.43689,0.04243 0.61796,0.32527l0.0197,0.01182c0.79885,0.12106 1.56394,0.31144 2.25281,0.58702c0.31191,-0.30783 0.77227,-0.14042 0.77227,-0.14042c0.64548,0.23581 1.27756,0.53195 1.89716,0.85789c0.41174,-0.35295 1.04954,-0.55495 1.8261,-0.18765c0.1384,0.06546 0.13043,0.23592 0.11891,0.41549c0.20083,-0.00409 0.43426,0.01102 0.70356,0.04841c0.38079,0.05287 0.80556,0.29565 1.216,0.55104c0.44315,-0.21712 0.82979,0.16952 0.82979,0.16952l0.21297,0.21465c2.93916,0.77277 6.21519,1.96503 8.80239,3.59957c1.05473,0.45352 1.55678,1.0796 2.95489,1.07387c0,0 0.75,0 0.75,0.75c0,0.39385 -0.20683,0.58087 -0.40325,0.66969c0,0.0008 0,0.00159 0,0.00239c0,0.41422 -0.33578,0.75 -0.75,0.75c-0.09618,0 -0.18813,-0.0181 -0.27264,-0.0511l-0.67415,-0.24515c-0.2571,-0.04235 -0.5142,-0.08472 -0.7713,-0.12707c-1.84301,-0.56883 -3.54328,-1.46061 -5.23067,-2.38028c-1.68418,-0.36184 -3.36653,-0.73531 -4.97236,-1.35838c-0.13457,-0.01528 -0.2464,-0.06456 -0.34182,-0.13697c-0.44845,-0.18557 -0.89042,-0.39222 -1.32426,-0.62526c-0.03095,-0.01577 -0.06199,-0.03235 -0.09309,-0.04968c-0.33842,0.07182 -0.63297,-0.16381 -0.63297,-0.16381l-0.25339,-0.21136c-0.17493,-0.1056 -0.35132,-0.21255 -0.52911,-0.31981c0.00842,0.16501 -0.04585,0.35403 -0.23487,0.54305c-0.53033,0.53033 -1.06066,0 -1.06066,0l-0.0054,-0.01189c-0.80936,-0.64751 -1.58173,-1.36334 -2.47123,-1.89155c-0.03089,-0.01933 -0.06184,-0.03793 -0.09284,-0.0558c-0.52106,-0.13708 -1.04125,-0.27705 -1.56084,-0.4188c-0.77292,-0.03546 -1.57142,0.09235 -2.38831,0.04147c-0.61433,-0.03826 -1.21009,-0.13415 -1.79423,-0.26648c-0.92401,0 -1.82654,0 -2.58208,0c0,0 -0.75,0 -0.75,-0.75c0,-0.06995 0.00653,-0.13339 0.01836,-0.1909h-0.41089c0,0 -0.53597,0 -0.70174,-0.45309c-0.10304,-0.03234 -0.20629,-0.06408 -0.30979,-0.09509c-0.78819,-0.04137 -1.57062,-0.10947 -2.33463,-0.28211c-0.38419,-0.10967 -0.7521,-0.21841 -1.11808,-0.31164c-0.03522,-0.0004 -0.07052,-0.0006 -0.10587,-0.0006c0,0 -0.22416,0 -0.42739,-0.12255c-0.44643,-0.0908 -0.90027,-0.14828 -1.38721,-0.14628h-0.53766c0,0 -0.75,0 -0.75,-0.75c0,-0.75 0.75,-0.75 0.75,-0.75h0.53766c0.74065,0.00257 1.41554,0.11231 2.09282,0.27287c1.22571,0.03549 2.37313,0.30086 3.49231,0.64196c1.52325,0.09166 3.07942,0.05521 4.56407,0.45717c0.12451,0.03371 0.24901,0.06755 0.37347,0.10151c0.36212,0.0402 0.72242,0.09982 1.08432,0.18721z" fill="#ffab19" fill-rule="nonzero" stroke="none" stroke-width="0.5" stroke-linecap="butt" stroke-linejoin="miter"/><path d="M276.69364,217.85709c-0.05404,-0.0011 -0.74666,-0.02922 -0.74666,-0.74996c0,-0.75 0.75,-0.75 0.75,-0.75l0.58749,0.10688c1.14255,0.68667 2.726,1.47281 3.98236,1.65261c0,0 0.7379,0.13416 0.60374,0.87207c-0.13416,0.7379 -0.87207,0.60374 -0.87207,0.60374c-1.42185,-0.29278 -2.99498,-0.97283 -4.30486,-1.73534z" fill="#ffab19" fill-rule="nonzero" stroke="none" stroke-width="0.5" stroke-linecap="butt" stroke-linejoin="miter"/><g fill-rule="evenodd"><path d="M224.0356,205.89632c0.84334,-0.29794 2.67143,-0.89636 3.45163,3.19159c0.7802,4.08794 -3.50724,9.53935 -4.06274,10.11505c-2.08059,2.30025 -4.71921,5.03479 -8.64304,7.08505c-11.34981,6.00182 -20.84621,-3.0225 -19.64935,-7.28718c1.12742,-4.19272 8.13674,0.20835 15.48191,-0.34711c3.24965,-0.19946 5.83902,-1.73085 7.86532,-3.11074c2.79264,-2.03007 4.57152,-9.34619 5.55626,-9.64666z" fill="#ffab19" stroke="#001026" stroke-width="1.2" stroke-linecap="round" stroke-linejoin="round"/><path d="M200.98628,218.11838c3.05396,0.72342 7.94105,1.13123 7.94105,1.13123c0,0 -3.21683,2.03764 -3.45167,4.72927c-0.24493,2.12603 1.61597,3.3658 2.25858,3.70794c-1.83818,0.03282 -4.24449,-0.06567 -7.45752,-1.77636c-3.21303,-1.71069 -5.54104,-5.34667 -4.58407,-7.20252c1.1009,-1.71698 2.52751,-1.03523 5.29362,-0.58956z" fill="#ffffff" stroke="none" stroke-width="1" stroke-linecap="butt" stroke-linejoin="miter"/></g></g></g></svg>