<svg version="1.1" xmlns="http://www.w3.org/2000/svg" xmlns:xlink="http://www.w3.org/1999/xlink" width="94.16798" height="107.31077" viewBox="0,0,94.16798,107.31077"><g transform="translate(-193.4851,-130.36469)"><g data-paper-data="{&quot;isPaintingLayer&quot;:true}" fill-rule="evenodd" stroke-miterlimit="10" stroke-dasharray="" stroke-dashoffset="0" style="mix-blend-mode: normal"><g><path d="M226.03471,201.77011c0.81133,0.37649 2.53686,1.22652 0.23706,4.69508c-2.2998,3.46857 -9.17644,4.36955 -9.9761,4.39288c-3.09576,0.19039 -6.89414,0.30123 -11.1332,-0.97565c-12.31149,-3.64241 -12.79359,-16.73392 -8.95651,-18.94679c3.73712,-2.20996 5.67269,5.83701 11.31328,10.57449c2.46316,2.12906 5.38526,2.84412 7.79882,3.2739c3.41606,0.50056 9.80245,-3.48743 10.71664,-3.01389z" fill="#ffab19" stroke="#001026" stroke-width="1.2" stroke-linecap="round" stroke-linejoin="round"/><path d="M201.00898,194.397c1.67808,2.65217 4.88761,6.36013 4.88761,6.36013c0,0 -3.72467,-0.79168 -5.77419,0.96885c-1.66136,1.34904 -1.19735,3.53643 -0.97701,4.2303c-1.33737,-1.26153 -2.98919,-3.01408 -4.09087,-6.48342c-1.10167,-3.46934 -0.22462,-7.69673 1.75703,-8.35481c1.98748,-0.45817 2.53102,1.0266 4.19744,3.27895z" fill="#ffffff" stroke="none" stroke-width="1" stroke-linecap="butt" stroke-linejoin="miter"/></g><path d="M232.39541,208.43012c-0.03166,2.16309 0.07897,9.76492 -2.33931,17.69033l-0.14434,0.38621c-0.14434,0.38621 0.15421,0.8344 0.59711,0.89635c2.94081,-0.04016 8.6524,0.12666 6.93542,5.62138c-1.60361,5.32996 -18.83129,5.49384 -19.49888,-0.06353c-0.07642,-2.35884 1.46387,-3.3626 2.30353,-3.87734c0.44818,-0.29857 0.73159,-0.71047 0.93262,-1.17907c0.35064,-1.21534 0.93858,-3.48125 1.1607,-5.39192c0.62487,-4.78953 0.45023,-6.1235 0.34811,-8.62141c-0.10212,-2.49791 -0.54297,-8.38482 4.19055,-9.61921c4.0382,-1.10587 5.48945,2.07749 5.51446,4.15821z" fill="#ffab19" stroke="#001026" stroke-width="1.2" stroke-linecap="round" stroke-linejoin="round"/><path d="M246.62244,190.76487c0.51145,0.38525 6.81888,7.40423 8.76553,5.54666c2.33772,-2.16912 5.51671,-6.36363 9.21145,-3.17006c3.69473,3.19358 -2.93902,8.98956 -5.79403,10.57352c-6.80663,3.29996 -12.57636,-2.43417 -13.82252,-3.99849c-1.24616,-1.56431 -3.42403,-4.20191 -3.49987,-6.8008c0.01828,-2.80173 3.39642,-3.60061 5.13944,-2.15084z" fill="#ffab19" stroke="#001026" stroke-width="1.2" stroke-linecap="round" stroke-linejoin="round"/><g stroke-width="0.5"><path d="M249.66093,211.92302c2.15453,1.83794 4.60747,7.73112 4.60747,7.73112c0,0 14.22099,-2.91607 14.43101,4.28085c0.12543,4.29817 -7.04234,5.50777 -16.76445,4.89112c-0.60266,-0.08245 -1.20824,-0.26487 -1.7197,-0.65011c-1.72787,-1.40639 -0.50786,-4.81517 -4.2262,-8.07998c-1.13328,-0.99503 -2.50216,-2.73292 -3.4627,-3.61627c-6.06668,-5.62542 -16.21377,-8.61514 -16.21377,-8.61514c-8.7385,-8.04852 -1.94353,-11.74831 0.61529,-16.62502c2.37933,-4.17118 3.50221,-3.40361 9.53465,-2.37915c3.41314,0.40061 5.42104,0.64214 7.61718,0.478c3.29567,-0.19622 2.83595,4.61924 2.00926,7.14443c0,0 -1.29147,3.73926 -2.53549,5.67638c-1.53222,2.34569 -1.67233,3.33464 -2.84556,4.26926z" fill="#ffab19" stroke="#001026" stroke-linecap="round" stroke-linejoin="round"/><path d="M238.78978,206.90022c0,0 -1.53437,-1.15573 -3.17745,-2.60842c-2.05165,-1.74089 -4.09456,-3.18192 -2.18584,-6.33894c1.72923,-2.45148 3.33516,-5.69972 7.91783,-2.93222c4.37693,2.57342 2.55067,5.12778 2.55067,5.12778c-2.0678,4.56226 -5.10522,6.75179 -5.10522,6.75179z" fill="#ffffff" stroke="none" stroke-linecap="butt" stroke-linejoin="miter"/></g><path d="M223.45701,199.14419c2.28074,2.73464 5.7814,6.13396 1.56782,9.15816c-5.80122,3.4707 -10.99085,-6.3821 -12.09252,-9.85144c-0.99005,-3.07243 1.5505,-5.14742 3.69997,-6.91087c4.20774,-3.22411 7.72453,-6.12793 11.76659,-4.74526c5.05037,1.65338 1.5686,5.7567 -0.87783,7.62885c-1.46727,1.14329 -2.93163,2.38654 -4.01074,3.11832c-0.28529,0.50854 -0.36774,1.1112 -0.05328,1.60223z" fill="#ffab19" stroke="#001026" stroke-width="1.2" stroke-linecap="round" stroke-linejoin="round"/><g><path d="M252.97749,130.85399c0.29404,-0.20867 0.79674,-0.1233 0.90837,0.27361l2.91102,10.6196c0,0 6.53438,4.51131 8.52983,7.75448c3.35908,5.40431 3.5903,9.89948 3.5903,9.89948c0,0 7.15824,1.89199 8.524,7.55456c1.36576,5.66257 -2.71732,16.58633 -21.40139,20.83316c-18.68407,4.24684 -33.92641,-0.41052 -41.35594,-11.59855c-7.42952,-11.18803 3.36898,-25.10896 2.79257,-24.2918l-2.62127,-17.83112c-0.11162,-0.39691 0.37941,-0.71137 0.78508,-0.52313l12.3253,7.54367c0,0 4.44849,-1.83055 9.14066,-2.16757c2.79297,-0.28159 5.19778,-0.15169 7.50847,0.18105z" fill="#ffab19" stroke="#001026" stroke-width="1.2" stroke-linecap="butt" stroke-linejoin="miter"/><path d="M268.62881,159.80975c0,0 6.94957,1.59795 8.31533,7.26052c1.36576,5.66257 -3.13173,16.0982 -21.61881,20.23926c-24.04384,5.7038 -35.95901,-8.3546 -29.57107,-19.14553c6.38502,-10.89089 18.14558,-2.13023 26.52451,-2.97501c7.18235,-0.70982 7.79823,-7.03047 16.35004,-5.37923z" fill="#ffffff" stroke="none" stroke-width="1" stroke-linecap="butt" stroke-linejoin="miter"/><path d="M237.45435,171.42408c-0.01166,-0.39983 0.37941,-0.71137 0.78216,-0.62308c1.91961,0.64427 7.36399,2.08608 13.37311,2.31088c5.40645,0.14235 8.59634,-0.25086 10.08695,-0.5945c0.49687,-0.11454 0.91128,0.37357 0.72595,0.87919c-0.82085,2.72511 -4.40045,10.33276 -14.91349,10.03931c-9.12529,-0.73412 -10.21161,-7.10514 -10.05467,-12.01181z" fill="#ffffff" stroke="#001026" stroke-width="1.2" stroke-linecap="round" stroke-linejoin="round"/><path d="M287.05308,160.37254c-4.58715,3.93549 -11.78117,4.24547 -11.78117,4.24547" fill="none" stroke="#001026" stroke-width="1.2" stroke-linecap="round" stroke-linejoin="round"/><path d="M286.08033,171.6057c-6.28273,0.68356 -10.2365,-1.10186 -10.2365,-1.10186" fill="none" stroke="#001026" stroke-width="1.2" stroke-linecap="round" stroke-linejoin="round"/><path d="M251.8031,162.60176c2.0991,-0.06126 4.30401,0.07448 4.42438,0.77127c0.1408,1.39649 -1.27689,4.23905 -2.87329,4.38568c-1.7934,0.25242 -6.06454,-2.124 -6.11121,-3.72331c-0.13496,-1.19657 2.56097,-1.37529 4.56012,-1.43364z" fill="#001026" stroke="#001026" stroke-width="1.2" stroke-linecap="round" stroke-linejoin="round"/><path d="M206.7785,162.41508c0,0 8.67802,2.54794 12.26695,5.54452" fill="none" stroke="#001026" stroke-width="1.2" stroke-linecap="round" stroke-linejoin="round"/><path d="M219.44742,171.44937c-4.24858,1.82471 -11.67752,0.94104 -11.67752,0.94104" fill="none" stroke="#001026" stroke-width="1.2" stroke-linecap="round" stroke-linejoin="round"/><g><path d="M263.25678,150.56253c3.03004,4.41349 3.27877,9.5084 0.53246,11.38931c-2.7463,1.88092 -7.40561,-0.08401 -10.53559,-4.49458c-3.03004,-4.41349 -3.27877,-9.5084 -0.53246,-11.38931c2.74339,-1.98088 7.50556,0.08109 10.53559,4.49458z" fill="#ffffff" stroke="#001026" stroke-width="1.2" stroke-linecap="round" stroke-linejoin="round"/><path d="M263.02322,156.27177c0.03209,1.09953 -0.74132,2.02248 -1.74089,2.05165c-0.99958,0.02917 -1.82549,-0.84711 -1.85758,-1.94664c-0.03209,-1.09953 0.74132,-2.02248 1.74089,-2.05165c0.99958,-0.02917 1.82549,0.84711 1.85758,1.94664" fill="#001026" stroke="none" stroke-width="1" stroke-linecap="butt" stroke-linejoin="miter"/></g><g><path d="M238.54901,154.08477c3.12707,4.31061 3.08468,9.71415 0.44125,11.69211c-3.24317,1.99546 -7.68214,0.7244 -10.80922,-3.58622c-3.22703,-4.3077 -3.59322,-9.99944 -0.55872,-12.28893c3.03159,-2.38945 7.79959,-0.12758 10.92667,4.18304z" fill="#ffffff" stroke="#001026" stroke-width="1.2" stroke-linecap="round" stroke-linejoin="round"/><path d="M238.11846,159.8998c0.03209,1.09953 -0.74132,2.02248 -1.74089,2.05165c-0.99958,0.02917 -1.82549,-0.84711 -1.85758,-1.94664c-0.03209,-1.09953 0.74132,-2.02248 1.74089,-2.05165c1.00249,0.07079 1.82549,0.84711 1.85758,1.94664" fill="#001026" stroke="none" stroke-width="1" stroke-linecap="butt" stroke-linejoin="miter"/></g></g></g></g></svg>