<svg version="1.1" xmlns="http://www.w3.org/2000/svg" xmlns:xlink="http://www.w3.org/1999/xlink" width="81.5" height="107.82469" viewBox="0,0,81.5,107.82469"><g transform="translate(-175.78366,-129.21188)"><g data-paper-data="{&quot;isPaintingLayer&quot;:true}" stroke-miterlimit="10" stroke-dasharray="" stroke-dashoffset="0" style="mix-blend-mode: normal"><g data-paper-data="{&quot;index&quot;:null}" fill-rule="evenodd"><path d="M217.16814,201.1c0.8,0.4 2.5,1.3 0.1,4.7c-2.4,3.4 -9.3,4.1 -10.1,4.1c-3.1,0.1 -6.9,0.1 -11.1,-1.3c-12.2,-4 -12.3,-17.1 -8.4,-19.2c3.8,-2.1 5.5,6 11,10.9c2.4,2.2 5.3,3 7.7,3.5c3.4,0.6 9.9,-3.2 10.8,-2.7z" fill="#ffab19" stroke="#001026" stroke-width="1.2" stroke-linecap="round" stroke-linejoin="round"/><path d="M192.36814,193c1.6,2.7 4.7,6.5 4.7,6.5c0,0 -3.7,-0.9 -5.8,0.8c-1.7,1.3 -1.3,3.5 -1.1,4.2c-1.3,-1.3 -2.9,-3.1 -3.9,-6.6c-1,-3.5 0,-7.7 2,-8.3c2,-0.4 2.5,1.1 4.1,3.4z" fill="#ffffff" stroke="none" stroke-width="1" stroke-linecap="butt" stroke-linejoin="miter"/></g><path d="M227.19853,207.94272c-0.09475,2.16125 -0.20592,9.76307 -2.85435,17.61456l-0.15555,0.38184c-0.15555,0.38184 0.12981,0.83854 0.57071,0.91339c2.94073,0.04564 8.64502,0.379 6.76849,5.8213c-1.75841,5.28091 -18.98354,4.94218 -19.48872,-0.6323c-0.00758,-2.36007 1.56133,-3.31847 2.41566,-3.80849c0.4567,-0.28536 0.752,-0.68883 0.96661,-1.15137c0.38595,-1.20459 1.03973,-3.45239 1.3175,-5.35576c0.76432,-4.76926 0.62867,-6.10776 0.59945,-8.60759c-0.02921,-2.49983 -0.29815,-8.39709 4.46937,-9.49288c4.06874,-0.98761 5.42651,2.23674 5.39082,4.3173z" data-paper-data="{&quot;index&quot;:null}" fill="#ffab19" fill-rule="evenodd" stroke="#001026" stroke-width="1.2" stroke-linecap="round" stroke-linejoin="round"/><path d="M230.85989,194.34044c-1.95018,-2.01166 -0.0999,-4.94874 2.15953,-5.1358c0.63483,-0.08354 10.05314,0.50431 10.1403,-2.185c0.14786,-3.18561 -0.52331,-8.40572 4.35045,-8.71628c4.87376,-0.31056 4.20236,8.4729 3.27541,11.60352c-2.54374,7.12386 -10.6781,7.07589 -12.6633,6.83306c-1.98521,-0.24283 -5.38719,-0.5985 -7.2624,-2.3995z" data-paper-data="{&quot;index&quot;:null}" fill="#ffab19" fill-rule="evenodd" stroke="#001026" stroke-width="1.2" stroke-linecap="round" stroke-linejoin="round"/><path d="M242.97565,203.26009c-0.12593,0.70821 -0.237,1.42378 -0.33772,2.15717c-0.40838,0.95675 -0.81757,1.91236 -1.19888,2.87961l-1.90363,2.05218c-7.73622,-2.37267 -17.60975,-1.07183 -17.60975,-1.07183c-11.2515,-3.81365 -6.54051,-9.95096 -6.179,-15.44636c0.48352,-4.77768 1.82118,-4.53136 7.75083,-6.04107c3.28238,-1.01783 5.21573,-1.61126 7.15667,-2.65183c2.933,-1.51576 4.46543,3.07244 4.73372,5.71593c0,0 0.33574,3.94174 -0.01592,6.21689c-0.44942,2.7655 -0.17647,3.7263 -0.86993,5.05639z" data-paper-data="{&quot;index&quot;:null}" fill="#ffab19" fill-rule="nonzero" stroke="#001026" stroke-width="1.2" stroke-linecap="butt" stroke-linejoin="miter"/><path d="M229.76814,206.6c0,0 -1.5,-1.2 -3.1,-2.7c-2,-1.8 -4,-3.3 -2,-6.4c1.8,-2.4 3.5,-5.6 8,-2.7c4.3,2.7 2.4,5.2 2.4,5.2c-2.2,4.5 -5.3,6.6 -5.3,6.6z" data-paper-data="{&quot;index&quot;:null}" fill="#ffffff" fill-rule="evenodd" stroke="none" stroke-width="1" stroke-linecap="butt" stroke-linejoin="miter"/><path d="M214.66814,198.4c2.2,2.8 5.6,6.3 1.3,9.2c-5.9,3.3 -10.8,-6.7 -11.8,-10.2c-0.9,-3.1 1.7,-5.1 3.9,-6.8c4.3,-3.1 7.9,-5.9 11.9,-4.4c5,1.8 1.4,5.8 -1.1,7.6c-1.5,1.1 -3,2.3 -4.1,3c-0.3,0.5 -0.4,1.1 -0.1,1.6z" data-paper-data="{&quot;index&quot;:null}" fill="#ffab19" fill-rule="evenodd" stroke="#001026" stroke-width="1.2" stroke-linecap="round" stroke-linejoin="round"/><g data-paper-data="{&quot;index&quot;:null}" fill-rule="evenodd"><path d="M223.48366,129.71111c0.3,-0.2 0.8,-0.1 0.9,0.3l2.6,10.7c0,0 6.4,4.7 8.3,8c3.2,5.5 3.3,10 3.3,10c0,0 7.1,2.1 8.3,7.8c1.2,5.7 -3.2,16.5 -22,20.2c-18.8,3.7 -33.9,-1.4 -41,-12.8c-7.1,-11.4 4.1,-25 3.5,-24.2l-2.1,-17.9c-0.1,-0.4 0.4,-0.7 0.8,-0.5l12.1,7.9c0,0 4.5,-1.7 9.2,-1.9c2.8,-0.2 5.2,0 7.5,0.4z" fill="#ffab19" stroke="#001026" stroke-width="1.2" stroke-linecap="butt" stroke-linejoin="miter"/><path d="M238.28366,159.11111c0,0 6.9,1.8 8.1,7.5c1.2,5.7 -3.6,16 -22.2,19.6c-24.2,5 -35.7,-9.4 -29,-20c6.7,-10.7 18.2,-1.6 26.6,-2.2c7.2,-0.5 8,-6.8 16.5,-4.9z" fill="#ffffff" stroke="none" stroke-width="1" stroke-linecap="butt" stroke-linejoin="miter"/><path d="M206.78366,169.81111c0,-0.4 0.4,-0.7 0.8,-0.6c1.9,0.7 7.3,2.3 13.3,2.7c5.4,0.3 8.6,0 10.1,-0.3c0.5,-0.1 0.9,0.4 0.7,0.9c-0.9,2.7 -4.7,10.2 -15.2,9.6c-9.1,-1 -10,-7.4 -9.7,-12.3z" fill="#ffffff" stroke="#001026" stroke-width="1.2" stroke-linecap="round" stroke-linejoin="round"/><path d="M256.68366,160.21111c-4.7,3.8 -11.9,3.9 -11.9,3.9" fill="none" stroke="#001026" stroke-width="1.2" stroke-linecap="round" stroke-linejoin="round"/><path d="M255.38365,171.41111c-6.3,0.5 -10.2,-1.4 -10.2,-1.4" fill="none" stroke="#001026" stroke-width="1.2" stroke-linecap="round" stroke-linejoin="round"/><path d="M221.38366,161.41111c2.1,0 4.3,0.2 4.4,0.9c0.1,1.4 -1.4,4.2 -3,4.3c-1.8,0.2 -6,-2.3 -6,-3.9c-0.1,-1.2 2.6,-1.3 4.6,-1.3z" fill="#001026" stroke="#001026" stroke-width="1.2" stroke-linecap="round" stroke-linejoin="round"/><path d="M176.38366,159.91111c0,0 8.6,2.8 12.1,5.9" fill="none" stroke="#001026" stroke-width="1.2" stroke-linecap="round" stroke-linejoin="round"/><path d="M188.78366,169.31111c-4.3,1.7 -11.7,0.6 -11.7,0.6" fill="none" stroke="#001026" stroke-width="1.2" stroke-linecap="round" stroke-linejoin="round"/><g><path d="M233.18366,149.71111c2.9,4.5 3,9.6 0.2,11.4c-2.8,1.8 -7.4,-0.3 -10.4,-4.8c-2.9,-4.5 -3,-9.6 -0.2,-11.4c2.8,-1.9 7.5,0.3 10.4,4.8z" fill="#ffffff" stroke="#001026" stroke-width="1.2" stroke-linecap="round" stroke-linejoin="round"/><path d="M232.78366,155.41111c0,1.1 -0.8,2 -1.8,2c-1,0 -1.8,-0.9 -1.8,-2c0,-1.1 0.8,-2 1.8,-2c1,0 1.8,0.9 1.8,2" fill="#001026" stroke="none" stroke-width="1" stroke-linecap="butt" stroke-linejoin="miter"/></g><g><path d="M208.38366,152.51111c3,4.4 2.8,9.8 0.1,11.7c-3.3,1.9 -7.7,0.5 -10.7,-3.9c-3.1,-4.4 -3.3,-10.1 -0.2,-12.3c3.1,-2.3 7.8,0.1 10.8,4.5z" fill="#ffffff" stroke="#001026" stroke-width="1.2" stroke-linecap="round" stroke-linejoin="round"/><path d="M207.78366,158.31111c0,1.1 -0.8,2 -1.8,2c-1,0 -1.8,-0.9 -1.8,-2c0,-1.1 0.8,-2 1.8,-2c1,0.1 1.8,0.9 1.8,2" fill="#001026" stroke="none" stroke-width="1" stroke-linecap="butt" stroke-linejoin="miter"/></g></g><path d="" data-paper-data="{&quot;index&quot;:null}" fill="#ffab19" fill-rule="nonzero" stroke="none" stroke-width="0.5" stroke-linecap="butt" stroke-linejoin="miter"/><path d="" data-paper-data="{&quot;index&quot;:null}" fill="#ffab19" fill-rule="nonzero" stroke="none" stroke-width="0.5" stroke-linecap="butt" stroke-linejoin="miter"/><path d="" data-paper-data="{&quot;index&quot;:null}" fill="#ffab19" fill-rule="nonzero" stroke="none" stroke-width="0.5" stroke-linecap="butt" stroke-linejoin="miter"/><path d="" data-paper-data="{&quot;index&quot;:null}" fill="#ffab19" fill-rule="nonzero" stroke="none" stroke-width="0.5" stroke-linecap="butt" stroke-linejoin="miter"/><path d="M242.90027,203.69528c-0.20916,1.23999 -0.37601,2.50881 -0.52443,3.86178c-0.32129,0.14196 -0.52154,0.29215 -0.52154,0.29215l-2.2228,2.39626c-0.00374,-0.03459 -0.00571,-0.07106 -0.00571,-0.10949c0,-0.59162 0.46669,-0.71655 0.66379,-0.74294c-0.11596,-0.17868 -0.22088,-0.36518 -0.30908,-0.55268c-0.73164,-0.42887 -1.42992,-1.01135 -2.01606,-1.52623h-0.65024c-0.41422,0 -0.75,-0.33578 -0.75,-0.75c0,-0.3861 0.29177,-0.70408 0.66685,-0.74545l1.35083,-0.16885l0.03444,0.27555c0.00269,-0.00053 0.00537,-0.00106 0.00806,-0.00158c0.09144,-0.05591 0.1958,-0.09279 0.30755,-0.10512l1.35084,-0.16885l0.00205,0.01642l0.04437,-0.02077c0.21026,-0.00028 0.42051,-0.00052 0.63077,-0.0007c-0.09028,-0.12384 -0.14355,-0.27638 -0.14355,-0.44136c0,-0.27283 0.14568,-0.51165 0.36351,-0.64288l1.26099,-0.78812l0.09842,0.15747c0.12031,-0.08505 0.24051,-0.16337 0.36094,-0.23461z" data-paper-data="{&quot;index&quot;:null}" fill="#ffab19" fill-rule="nonzero" stroke="none" stroke-width="0.5" stroke-linecap="butt" stroke-linejoin="miter"/><path d="M242.86616,203.90001c-0.08726,0.53033 -0.16706,1.06645 -0.24126,1.61267c-0.19284,-0.05466 -0.38315,-0.10718 -0.57295,-0.15553c-0.03522,-0.0004 -0.07052,-0.0006 -0.10587,-0.0006c0,0 -0.22416,0 -0.42739,-0.12255c-0.44643,-0.0908 -0.90027,-0.14828 -1.38721,-0.14628h-0.53766c0,0 -0.75,0 -0.75,-0.75c0,-0.75 0.75,-0.75 0.75,-0.75h0.53766c0.74065,0.00257 1.41554,0.11231 2.09282,0.27287c0.2163,0.00626 0.43016,0.01969 0.64186,0.03942z" data-paper-data="{&quot;index&quot;:null}" fill="#ffab19" fill-rule="nonzero" stroke="none" stroke-width="0.5" stroke-linecap="butt" stroke-linejoin="miter"/></g></g></svg>