<svg version="1.1" xmlns="http://www.w3.org/2000/svg" xmlns:xlink="http://www.w3.org/1999/xlink" width="135.95729" height="107.82469" viewBox="0,0,135.95729,107.82469"><g transform="translate(-175.78366,-129.21188)"><g data-paper-data="{&quot;isPaintingLayer&quot;:true}" stroke-miterlimit="10" stroke-dasharray="" stroke-dashoffset="0" style="mix-blend-mode: normal"><g data-paper-data="{&quot;index&quot;:null}" fill-rule="evenodd"><path d="M281.15648,203.8c2.4,-0.5 5.3,-1.3 7.7,-3.5c5.5,-4.9 7.2,-13 11,-10.9c3.9,2.1 3.8,15.2 -8.4,19.2c-4.2,1.4 -8,1.4 -11.1,1.3c-0.8,0 -7.7,-0.7 -10.1,-4.1c-2.4,-3.4 -0.7,-4.3 0.1,-4.7c0.9,-0.5 7.4,3.3 10.8,2.7z" fill="#ffab19" stroke="#001026" stroke-width="1.2" stroke-linecap="round" stroke-linejoin="round"/><path d="M299.25648,189.6c2,0.6 3,4.8 2,8.3c-1,3.5 -2.6,5.3 -3.9,6.6c0.2,-0.7 0.6,-2.9 -1.1,-4.2c-2.1,-1.7 -5.8,-0.8 -5.8,-0.8c0,0 3.1,-3.8 4.7,-6.5c1.6,-2.3 2.1,-3.8 4.1,-3.4z" fill="#ffffff" stroke="none" stroke-width="1" stroke-linecap="butt" stroke-linejoin="miter"/></g><path d="M260.3261,207.94272c-0.03569,-2.08056 1.32208,-5.30491 5.39082,-4.3173c4.76752,1.09579 4.49858,6.99305 4.46937,9.49288c-0.02922,2.49983 -0.16487,3.83833 0.59945,8.60759c0.27777,1.90337 0.93155,4.15117 1.3175,5.35576c0.21461,0.46254 0.50991,0.86601 0.96661,1.15137c0.85433,0.49002 2.42324,1.44842 2.41566,3.80849c-0.50518,5.57448 -17.73031,5.91321 -19.48872,0.6323c-1.87653,-5.4423 3.82776,-5.77566 6.76849,-5.8213c0.4409,-0.07485 0.72626,-0.53155 0.57071,-0.91339l-0.15555,-0.38184c-2.64843,-7.85149 -2.7596,-15.45331 -2.85435,-17.61456z" data-paper-data="{&quot;index&quot;:null}" fill="#ffab19" fill-rule="evenodd" stroke="#001026" stroke-width="1.2" stroke-linecap="round" stroke-linejoin="round"/><path d="M256.66474,194.34044c-1.87521,1.801 -5.27719,2.15667 -7.2624,2.3995c-1.9852,0.24283 -10.11956,0.2908 -12.6633,-6.83306c-0.92695,-3.13062 -1.59835,-11.91408 3.27541,-11.60352c4.87376,0.31056 4.20259,5.53067 4.35045,8.71628c0.08716,2.68931 9.50547,2.10146 10.1403,2.185c2.25943,0.18706 4.10971,3.12414 2.15953,5.1358z" data-paper-data="{&quot;index&quot;:null}" fill="#ffab19" fill-rule="evenodd" stroke="#001026" stroke-width="1.2" stroke-linecap="round" stroke-linejoin="round"/><path d="M253.02258,202.12717c-0.69346,-1.33009 -0.42051,-2.29089 -0.86993,-5.05639c-0.35166,-2.27515 -0.01592,-6.21689 -0.01592,-6.21689c0.26829,-2.64349 1.80072,-7.23169 4.73372,-5.71593c1.94094,1.04057 3.87429,1.634 7.15667,2.65183c5.92965,1.50971 7.26731,1.26339 7.75083,6.04107c0.36151,5.4954 5.0725,11.63271 -6.179,15.44636c0,0 -9.87353,-1.30084 -17.60975,1.07183l-1.90363,-2.05218c-0.38131,-0.96725 -0.7905,-1.92286 -1.19888,-2.87961c-0.10072,-0.73339 -0.21179,-1.44896 -0.33772,-2.15717z" data-paper-data="{&quot;index&quot;:null}" fill="#ffab19" fill-rule="nonzero" stroke="#001026" stroke-width="1.2" stroke-linecap="butt" stroke-linejoin="miter"/><path d="M189.29237,208.32369c0,0 1.1437,-0.1792 2.66497,-0.31728c-0.10053,2.411 0.95711,4.55337 0.89645,6.99522c-0.0041,0.16485 -0.01009,0.32983 -0.01774,0.49495c-4.45238,-1.18617 -6.65054,1.45282 -8.69144,0.73602c-0.59572,-0.23475 -1.0677,-0.65575 -1.45293,-1.1265c-5.60615,-7.96687 -8.32042,-14.71022 -4.59025,-16.84932c6.24588,-3.58175 11.19093,10.06693 11.19093,10.06693z" data-paper-data="{&quot;index&quot;:null}" fill="#ffab19" fill-rule="nonzero" stroke="#001026" stroke-width="1.2" stroke-linecap="butt" stroke-linejoin="miter"/><path d="M252.45648,200c0,0 -1.9,-2.5 2.4,-5.2c4.5,-2.9 6.2,0.3 8,2.7c2,3.1 0,4.6 -2,6.4c-1.6,1.5 -3.1,2.7 -3.1,2.7c0,0 -3.1,-2.1 -5.3,-6.6z" data-paper-data="{&quot;index&quot;:null}" fill="#ffffff" fill-rule="evenodd" stroke="none" stroke-width="1" stroke-linecap="butt" stroke-linejoin="miter"/><path d="M272.75648,196.8c-1.1,-0.7 -2.6,-1.9 -4.1,-3c-2.5,-1.8 -6.1,-5.8 -1.1,-7.6c4,-1.5 7.6,1.3 11.9,4.4c2.2,1.7 4.8,3.7 3.9,6.8c-1,3.5 -5.9,13.5 -11.8,10.2c-4.3,-2.9 -0.9,-6.4 1.3,-9.2c0.3,-0.5 0.2,-1.1 -0.1,-1.6z" data-paper-data="{&quot;index&quot;:null}" fill="#ffab19" fill-rule="evenodd" stroke="#001026" stroke-width="1.2" stroke-linecap="round" stroke-linejoin="round"/><g data-paper-data="{&quot;index&quot;:null}" fill-rule="evenodd"><path d="M272.64096,137.71111c2.3,-0.4 4.7,-0.6 7.5,-0.4c4.7,0.2 9.2,1.9 9.2,1.9l12.1,-7.9c0.4,-0.2 0.9,0.1 0.8,0.5l-2.1,17.9c-0.6,-0.8 10.6,12.8 3.5,24.2c-7.1,11.4 -22.2,16.5 -41,12.8c-18.8,-3.7 -23.2,-14.5 -22,-20.2c1.2,-5.7 8.3,-7.8 8.3,-7.8c0,0 0.1,-4.5 3.3,-10c1.9,-3.3 8.3,-8 8.3,-8l2.6,-10.7c0.1,-0.4 0.6,-0.5 0.9,-0.3z" fill="#ffab19" stroke="#001026" stroke-width="1.2" stroke-linecap="butt" stroke-linejoin="miter"/><path d="M265.74096,164.01111c8.4,0.6 19.9,-8.5 26.6,2.2c6.7,10.6 -4.8,25 -29,20c-18.6,-3.6 -23.4,-13.9 -22.2,-19.6c1.2,-5.7 8.1,-7.5 8.1,-7.5c8.5,-1.9 9.3,4.4 16.5,4.9z" fill="#ffffff" stroke="none" stroke-width="1" stroke-linecap="butt" stroke-linejoin="miter"/><path d="M271.04096,182.11111c-10.5,0.6 -14.3,-6.9 -15.2,-9.6c-0.2,-0.5 0.2,-1 0.7,-0.9c1.5,0.3 4.7,0.6 10.1,0.3c6,-0.4 11.4,-2 13.3,-2.7c0.4,-0.1 0.8,0.2 0.8,0.6c0.3,4.9 -0.6,11.3 -9.7,12.3z" fill="#ffffff" stroke="#001026" stroke-width="1.2" stroke-linecap="round" stroke-linejoin="round"/><path d="M242.74096,164.11111c0,0 -7.2,-0.1 -11.9,-3.9" fill="none" stroke="#001026" stroke-width="1.2" stroke-linecap="round" stroke-linejoin="round"/><path d="M242.34097,170.01111c0,0 -3.9,1.9 -10.2,1.4" fill="none" stroke="#001026" stroke-width="1.2" stroke-linecap="round" stroke-linejoin="round"/><path d="M270.74096,162.71111c0,1.6 -4.2,4.1 -6,3.9c-1.6,-0.1 -3.1,-2.9 -3,-4.3c0.1,-0.7 2.3,-0.9 4.4,-0.9c2,0 4.7,0.1 4.6,1.3z" fill="#001026" stroke="#001026" stroke-width="1.2" stroke-linecap="round" stroke-linejoin="round"/><path d="M299.04096,165.81111c3.5,-3.1 12.1,-5.9 12.1,-5.9" fill="none" stroke="#001026" stroke-width="1.2" stroke-linecap="round" stroke-linejoin="round"/><path d="M310.44096,169.91111c0,0 -7.4,1.1 -11.7,-0.6" fill="none" stroke="#001026" stroke-width="1.2" stroke-linecap="round" stroke-linejoin="round"/><g><path d="M264.74096,144.91111c2.8,1.8 2.7,6.9 -0.2,11.4c-3,4.5 -7.6,6.6 -10.4,4.8c-2.8,-1.8 -2.7,-6.9 0.2,-11.4c2.9,-4.5 7.6,-6.7 10.4,-4.8z" fill="#ffffff" stroke="#001026" stroke-width="1.2" stroke-linecap="round" stroke-linejoin="round"/><path d="M254.74096,155.41111c0,-1.1 0.8,-2 1.8,-2c1,0 1.8,0.9 1.8,2c0,1.1 -0.8,2 -1.8,2c-1,0 -1.8,-0.9 -1.8,-2" fill="#001026" stroke="none" stroke-width="1" stroke-linecap="butt" stroke-linejoin="miter"/></g><g><path d="M289.94096,148.01111c3.1,2.2 2.9,7.9 -0.2,12.3c-3,4.4 -7.4,5.8 -10.7,3.9c-2.7,-1.9 -2.9,-7.3 0.1,-11.7c3,-4.4 7.7,-6.8 10.8,-4.5z" fill="#ffffff" stroke="#001026" stroke-width="1.2" stroke-linecap="round" stroke-linejoin="round"/><path d="M279.74096,158.31111c0,-1.1 0.8,-1.9 1.8,-2c1,0 1.8,0.9 1.8,2c0,1.1 -0.8,2 -1.8,2c-1,0 -1.8,-0.9 -1.8,-2" fill="#001026" stroke="none" stroke-width="1" stroke-linecap="butt" stroke-linejoin="miter"/></g></g><path d="" data-paper-data="{&quot;index&quot;:null}" fill="#ffab19" fill-rule="nonzero" stroke="none" stroke-width="0.5" stroke-linecap="butt" stroke-linejoin="miter"/><path d="" data-paper-data="{&quot;index&quot;:null}" fill="#ffab19" fill-rule="nonzero" stroke="none" stroke-width="0.5" stroke-linecap="butt" stroke-linejoin="miter"/><path d="" data-paper-data="{&quot;index&quot;:null}" fill="#ffab19" fill-rule="nonzero" stroke="none" stroke-width="0.5" stroke-linecap="butt" stroke-linejoin="miter"/><path d="" data-paper-data="{&quot;index&quot;:null}" fill="#ffab19" fill-rule="nonzero" stroke="none" stroke-width="0.5" stroke-linecap="butt" stroke-linejoin="miter"/><path d="M244.98529,203.92989l0.09842,-0.15747l1.26099,0.78812c0.21783,0.13123 0.36351,0.37005 0.36351,0.64288c0,0.16498 -0.05327,0.31752 -0.14355,0.44136c0.21026,0.00018 0.42051,0.00042 0.63077,0.0007l0.04437,0.02077l0.00205,-0.01642l1.35084,0.16885c0.11175,0.01233 0.21611,0.04921 0.30755,0.10512c0.00269,0.00052 0.00537,0.00105 0.00806,0.00158l0.03444,-0.27555l1.35083,0.16885c0.37508,0.04137 0.66685,0.35935 0.66685,0.74545c0,0.41422 -0.33578,0.75 -0.75,0.75h-0.65024c-0.58614,0.51488 -1.28442,1.09736 -2.01606,1.52623c-0.0882,0.1875 -0.19312,0.374 -0.30908,0.55268c0.1971,0.02639 0.66379,0.15132 0.66379,0.74294c0,0.03843 -0.00197,0.0749 -0.00571,0.10949l-2.2228,-2.39626c0,0 -0.20025,-0.15019 -0.52154,-0.29215c-0.14842,-1.35297 -0.31527,-2.62179 -0.52443,-3.86178c0.12043,0.07124 0.24063,0.14956 0.36094,0.23461z" data-paper-data="{&quot;index&quot;:null}" fill="#ffab19" fill-rule="nonzero" stroke="none" stroke-width="0.5" stroke-linecap="butt" stroke-linejoin="miter"/><path d="M222.38691,207.9165c-0.05207,-0.02586 -0.10433,-0.05093 -0.15679,-0.07517c0.05237,0.00428 0.10466,0.02813 0.15679,0.07517z" data-paper-data="{&quot;index&quot;:null}" fill="#ffab19" fill-rule="nonzero" stroke="none" stroke-width="0.5" stroke-linecap="butt" stroke-linejoin="miter"/><path d="M245.30032,203.86059c0.67728,-0.16056 1.35217,-0.2703 2.09282,-0.27287h0.53766c0,0 0.75,0 0.75,0.75c0,0.75 -0.75,0.75 -0.75,0.75h-0.53766c-0.48694,-0.002 -0.94078,0.05548 -1.38721,0.14628c-0.20323,0.12255 -0.42739,0.12255 -0.42739,0.12255c-0.03535,0 -0.07065,0.0002 -0.10587,0.0006c-0.1898,0.04835 -0.38011,0.10087 -0.57295,0.15553c-0.0742,-0.54622 -0.154,-1.08234 -0.24126,-1.61267c0.2117,-0.01973 0.42556,-0.03316 0.64186,-0.03942z" data-paper-data="{&quot;index&quot;:null}" fill="#ffab19" fill-rule="nonzero" stroke="none" stroke-width="0.5" stroke-linecap="butt" stroke-linejoin="miter"/><path d="M220.49231,218.33507c-15.83972,0.96823 -28.9857,-2.10382 -29.36237,-6.86161c-0.37667,-4.75779 12.15861,-9.39965 27.99833,-10.36788c15.83972,-0.96823 28.9857,2.10382 29.36237,6.86161c0.37667,4.75779 -12.15861,9.39965 -27.99833,10.36788z" fill="#ffab19" fill-rule="nonzero" stroke="#001026" stroke-width="1.2" stroke-linecap="butt" stroke-linejoin="miter"/></g></g></svg>