<svg version="1.1" xmlns="http://www.w3.org/2000/svg" xmlns:xlink="http://www.w3.org/1999/xlink" width="107.67451" height="103.32843" viewBox="0,0,107.67451,103.32843"><g transform="translate(-177.64441,-133.07855)"><g data-paper-data="{&quot;isPaintingLayer&quot;:true}" fill-rule="evenodd" stroke-miterlimit="10" stroke-dasharray="" stroke-dashoffset="0" style="mix-blend-mode: normal"><g><path d="M228.30889,206.77112c0.8,0.4 2.5,1.3 0.1,4.7c-2.4,3.4 -9.3,4.1 -10.1,4.1c-3.1,0.1 -6.9,0.1 -11.1,-1.3c-12.2,-4 -12.3,-17.1 -8.4,-19.2c3.8,-2.1 5.5,6 11,10.9c2.4,2.2 5.3,3 7.7,3.5c3.4,0.6 9.9,-3.2 10.8,-2.7z" fill="#ffab19" stroke="#001026" stroke-width="1.2" stroke-linecap="round" stroke-linejoin="round"/><path d="M203.50889,198.67112c1.6,2.7 4.7,6.5 4.7,6.5c0,0 -3.7,-0.9 -5.8,0.8c-1.7,1.3 -1.3,3.5 -1.1,4.2c-1.3,-1.3 -2.9,-3.1 -3.9,-6.6c-1,-3.5 0,-7.7 2,-8.3c2,-0.4 2.5,1.1 4.1,3.4z" fill="#ffffff" stroke="none" stroke-width="1" stroke-linecap="butt" stroke-linejoin="miter"/></g><path d="M237.16946,206.72421c0.16372,2.15712 0.96008,9.71792 -0.73292,17.82926l-0.10889,0.39767c-0.10889,0.39767 0.2289,0.81707 0.67558,0.8388c2.92518,-0.30545 8.62851,-0.65488 7.41453,4.9724c-1.11596,5.45295 -18.25851,7.17124 -19.425,1.69681c-0.28904,-2.34232 1.15436,-3.48101 1.94414,-4.06944c0.4194,-0.3378 0.66447,-0.77361 0.82237,-1.25844c0.23951,-1.24203 0.62051,-3.55176 0.66926,-5.47468c0.18999,-4.82638 -0.10435,-6.13914 -0.43154,-8.61764c-0.32718,-2.4785 -1.29762,-8.30158 3.30516,-9.95821c3.92189,-1.46588 5.65457,1.5735 5.8673,3.64347z" fill="#ffab19" stroke="#001026" stroke-width="1.2" stroke-linecap="round" stroke-linejoin="round"/><path d="M245.6,190.7c0.5,0.4 6.6,7.6 8.6,5.8c2.4,-2.1 5.7,-6.2 9.3,-2.9c3.6,3.3 -3.2,8.9 -6.1,10.4c-6.9,3.1 -12.5,-2.8 -13.7,-4.4c-1.2,-1.6 -3.3,-4.3 -3.3,-6.9c0.1,-2.8 3.5,-3.5 5.2,-2z" fill="#ffab19" stroke="#001026" stroke-width="1.2" stroke-linecap="round" stroke-linejoin="round"/><g><path d="M255.6396,204.19469c2.82005,0.25939 17.60459,0.61809 17.60459,0.61809c0,0 5.55549,-13.93326 9.87673,-8.17419c1.74225,2.32195 1.93838,11.05522 1.17111,13.69959c-0.36927,1.27266 1.47487,2.17184 -1.22148,3.82943c-0.53994,0.28011 -16.3488,-0.03531 -16.9888,-0.05517c-2.90004,-0.19938 -11.3002,-0.89755 -16.84035,-1.61636c-8.20023,-1.09823 -14.40026,-1.19689 -14.40026,-1.19689c-11.78033,-1.53745 -8.36183,-8.47819 -9.08301,-13.93804c-0.46104,-4.7799 0.89896,-4.8002 6.41839,-7.44138c3.01964,-1.64065 4.79944,-2.60104 6.49914,-4.00141c2.57955,-2.06055 4.98046,2.13893 5.76101,4.67875c0,0 1.10082,3.79976 1.20132,6.09974c0.10061,2.79998 0.04102,4.72 -0.37867,6.16009z" fill="#ffab19" stroke="#001026" stroke-width="1.2" stroke-linecap="round" stroke-linejoin="round"/><path d="M244.47941,203.3171c0,0 -1.92002,-0.05958 -4.10007,-0.29912c-2.68005,-0.23942 -5.18005,-0.23887 -5.44085,-3.91882c-0.00065,-3 -0.56142,-6.57988 4.7785,-6.96104c5.05991,-0.4211 5.04059,2.71891 5.04059,2.71891c0.94107,4.91979 -0.27817,8.46006 -0.27817,8.46006z" fill="#ffffff" stroke="none" stroke-width="1" stroke-linecap="butt" stroke-linejoin="miter"/></g><path d="M239.77607,199.0436c2.9583,-1.98203 6.70533,-5.1077 9.27195,-0.60077c2.84453,6.13259 -7.4973,10.26259 -11.06288,10.99513c-3.15917,0.66307 -4.95688,-2.08069 -6.4857,-4.40291c-2.76605,-4.52205 -5.28589,-8.32343 -3.48778,-12.19858c2.17284,-4.84961 5.88924,-0.95752 7.49509,1.67141c0.98345,1.57887 2.06662,3.1653 2.68146,4.31507c0.47589,0.33694 1.06661,0.48201 1.58786,0.22067z" fill="#ffab19" stroke="#001026" stroke-width="1.2" stroke-linecap="round" stroke-linejoin="round"/><g><path d="M225.34441,133.57778c0.3,-0.2 0.8,-0.1 0.9,0.3l2.6,10.7c0,0 6.4,4.7 8.3,8c3.2,5.5 3.3,10 3.3,10c0,0 7.1,2.1 8.3,7.8c1.2,5.7 -3.2,16.5 -22,20.2c-18.8,3.7 -33.9,-1.4 -41,-12.8c-7.1,-11.4 4.1,-25 3.5,-24.2l-2.1,-17.9c-0.1,-0.4 0.4,-0.7 0.8,-0.5l12.1,7.9c0,0 4.5,-1.7 9.2,-1.9c2.8,-0.2 5.2,0 7.5,0.4z" fill="#ffab19" stroke="#001026" stroke-width="1.2" stroke-linecap="butt" stroke-linejoin="miter"/><path d="M240.14441,162.97778c0,0 6.9,1.8 8.1,7.5c1.2,5.7 -3.6,16 -22.2,19.6c-24.2,5 -35.7,-9.4 -29,-20c6.7,-10.7 18.2,-1.6 26.6,-2.2c7.2,-0.5 8,-6.8 16.5,-4.9z" fill="#ffffff" stroke="none" stroke-width="1" stroke-linecap="butt" stroke-linejoin="miter"/><path d="M208.64441,173.67778c0,-0.4 0.4,-0.7 0.8,-0.6c1.9,0.7 7.3,2.3 13.3,2.7c5.4,0.3 8.6,0 10.1,-0.3c0.5,-0.1 0.9,0.4 0.7,0.9c-0.9,2.7 -4.7,10.2 -15.2,9.6c-9.1,-1 -10,-7.4 -9.7,-12.3z" fill="#ffffff" stroke="#001026" stroke-width="1.2" stroke-linecap="round" stroke-linejoin="round"/><path d="M258.54441,164.07778c-4.7,3.8 -11.9,3.9 -11.9,3.9" fill="none" stroke="#001026" stroke-width="1.2" stroke-linecap="round" stroke-linejoin="round"/><path d="M257.24441,175.27778c-6.3,0.5 -10.2,-1.4 -10.2,-1.4" fill="none" stroke="#001026" stroke-width="1.2" stroke-linecap="round" stroke-linejoin="round"/><path d="M223.24441,165.27778c2.1,0 4.3,0.2 4.4,0.9c0.1,1.4 -1.4,4.2 -3,4.3c-1.8,0.2 -6,-2.3 -6,-3.9c-0.1,-1.2 2.6,-1.3 4.6,-1.3z" fill="#001026" stroke="#001026" stroke-width="1.2" stroke-linecap="round" stroke-linejoin="round"/><path d="M178.24441,163.77778c0,0 8.6,2.8 12.1,5.9" fill="none" stroke="#001026" stroke-width="1.2" stroke-linecap="round" stroke-linejoin="round"/><path d="M190.64441,173.17778c-4.3,1.7 -11.7,0.6 -11.7,0.6" fill="none" stroke="#001026" stroke-width="1.2" stroke-linecap="round" stroke-linejoin="round"/><g><path d="M235.04441,153.57778c2.9,4.5 3,9.6 0.2,11.4c-2.8,1.8 -7.4,-0.3 -10.4,-4.8c-2.9,-4.5 -3,-9.6 -0.2,-11.4c2.8,-1.9 7.5,0.3 10.4,4.8z" fill="#ffffff" stroke="#001026" stroke-width="1.2" stroke-linecap="round" stroke-linejoin="round"/><path d="M234.64441,159.27778c0,1.1 -0.8,2 -1.8,2c-1,0 -1.8,-0.9 -1.8,-2c0,-1.1 0.8,-2 1.8,-2c1,0 1.8,0.9 1.8,2" fill="#001026" stroke="none" stroke-width="1" stroke-linecap="butt" stroke-linejoin="miter"/></g><g><path d="M210.24441,156.37778c3,4.4 2.8,9.8 0.1,11.7c-3.3,1.9 -7.7,0.5 -10.7,-3.9c-3.1,-4.4 -3.3,-10.1 -0.2,-12.3c3.1,-2.3 7.8,0.1 10.8,4.5z" fill="#ffffff" stroke="#001026" stroke-width="1.2" stroke-linecap="round" stroke-linejoin="round"/><path d="M209.64441,162.17778c0,1.1 -0.8,2 -1.8,2c-1,0 -1.8,-0.9 -1.8,-2c0,-1.1 0.8,-2 1.8,-2c1,0.1 1.8,0.9 1.8,2" fill="#001026" stroke="none" stroke-width="1" stroke-linecap="butt" stroke-linejoin="miter"/></g></g></g></g></svg>