<svg version="1.1" xmlns="http://www.w3.org/2000/svg" xmlns:xlink="http://www.w3.org/1999/xlink" width="138.32245" height="26.18577" viewBox="0,0,138.32245,26.18577"><g transform="translate(-226.31996,-199.42642)"><g data-paper-data="{&quot;isPaintingLayer&quot;:true}" fill-rule="nonzero" stroke-linejoin="miter" stroke-miterlimit="10" stroke-dasharray="" stroke-dashoffset="0" style="mix-blend-mode: normal"><path d="M351.13371,210.69244c0,0 4.94505,-13.64868 11.19093,-10.06693c3.73017,2.1391 1.0159,8.88245 -4.59025,16.84932c-0.38523,0.47075 -0.85721,0.89175 -1.45293,1.1265c-2.0409,0.7168 -4.23906,-1.92219 -8.69144,-0.73602c-0.00765,-0.16512 -0.01364,-0.3301 -0.01774,-0.49495c-0.06066,-2.44185 0.99698,-4.58422 0.89645,-6.99522c1.52127,0.13808 2.66497,0.31728 2.66497,0.31728z" data-paper-data="{&quot;index&quot;:null}" fill="#ffab19" stroke="#001026" stroke-width="1.2" stroke-linecap="butt"/><path d="M318.19595,210.21006c-0.05246,0.02424 -0.10472,0.04931 -0.15679,0.07517c0.05213,-0.04704 0.10442,-0.07089 0.15679,-0.07517z" data-paper-data="{&quot;index&quot;:null}" fill="#ffab19" stroke="none" stroke-width="0.5" stroke-linecap="butt"/><path d="M291.93543,210.33592c0.37667,-4.75779 13.52265,-7.82984 29.36237,-6.86161c15.83972,0.96823 28.375,5.61009 27.99833,10.36788c-0.37667,4.75779 -13.52265,7.82984 -29.36237,6.86161c-15.83972,-0.96823 -28.375,-5.61009 -27.99833,-10.36788z" data-paper-data="{&quot;index&quot;:null}" fill="#ffab19" stroke="#001026" stroke-width="1.2" stroke-linecap="butt"/><path d="M281.688,221.00108v-18.94977h11.05404v18.94977z" fill="#ffab19" stroke="#000000" stroke-width="1" stroke-linecap="butt"/><path d="M243.75962,214.58562l5.8,9.6l-10.2,-5l-5.8,5.6l2.4,-8.4l-8.8,3l8.2,-9l-4.8,1.8l1.2,-6.2l-1,-2.6l9.6,2l1.2,-5l2,6.2z" fill="#ff0000" stroke="#000000" stroke-width="0.5" stroke-linecap="round"/><path d="M243.55962,206.58562l9,-1.4l11,1l17.6,2.2l0.6,7.6l-16.2,-2l-11.4,-0.8l-10,1.6z" fill="#ff0000" stroke="#000000" stroke-width="0.5" stroke-linecap="round"/></g></g></svg>