<svg version="1.1" xmlns="http://www.w3.org/2000/svg" xmlns:xlink="http://www.w3.org/1999/xlink" width="73.26046" height="142.49796" viewBox="0,0,73.26046,142.49796"><defs><radialGradient cx="240.9747" cy="188.3043" r="35.2121" gradientUnits="userSpaceOnUse" id="color-1"><stop offset="0" stop-color="#0033cc"/><stop offset="1" stop-color="#00ffff"/></radialGradient><radialGradient cx="260.5494" cy="107.3872" r="79.3137" gradientUnits="userSpaceOnUse" id="color-2"><stop offset="0" stop-color="#00ffff"/><stop offset="1" stop-color="#0033cc"/></radialGradient><radialGradient cx="260.945" cy="112.53" r="79.3137" gradientUnits="userSpaceOnUse" id="color-3"><stop offset="0" stop-color="#00ffff"/><stop offset="1" stop-color="#0033cc"/></radialGradient></defs><g transform="translate(-210.27112,-83.34344)"><g data-paper-data="{&quot;isPaintingLayer&quot;:true}" fill-rule="nonzero" stroke-linejoin="miter" stroke-miterlimit="10" stroke-dasharray="" stroke-dashoffset="0" style="mix-blend-mode: normal"><g><g fill="url(#color-1)" stroke="none" stroke-width="1" stroke-linecap="butt"><g><path d="M242.3266,175.3876c-0.8236,0.9431 0.7576,4.0196 -0.0968,4.9991c-1.0926,1.2519 -2.2616,2.5703 -2.9201,4.1207c-0.8188,1.9253 -0.0198,2.4471 -0.6988,-0.0157c0.3876,1.4049 1.1292,2.8156 2.4692,3.541c2.6218,1.4195 5.1437,0.4746 5.4564,-2.6248c-0.035,1.6366 -0.069,3.2722 -0.103,4.9099c-0.0273,-1.1618 0.287,-3.375 -1.2947,-1.8197c-0.8016,0.7875 -1.6147,1.6038 -2.0703,2.657c-0.8884,2.0531 -1.1827,1.6582 -0.3339,3.8243c0.3982,1.0179 0.8043,2.0901 1.5016,2.9529c0.0361,0.0457 2.2629,2.3247 2.2794,1.8419c0.0371,-1.0785 0.1893,-2.0097 0.7269,-2.9534c-0.0326,1.6667 -0.0652,3.3324 -0.0978,4.9991c-7.2851,5.2536 -4.3895,13.0767 0.9612,19.0224c0.8311,0.9235 -0.8936,4.1143 -0.0977,4.9991c-6.131,-6.8132 -9.5269,-22.7027 -0.7657,-29.0206c-0.7406,0.5347 0.4201,4.09 -0.0978,4.9991c-0.5645,0.9911 -0.6728,1.8252 -0.7124,2.9786c-0.0012,0.114 -0.0075,0.2289 -0.0197,0.3417c-4.9747,-3.746 -4.7328,-10.0805 -4.236,-15.6868c0.1746,-1.975 4.237,-9.319 4.3454,-4.737c0.0436,1.8623 0.0279,3.7413 -0.0755,5.6016c-0.3055,5.4401 -7.2926,3.4841 -7.9344,-0.8273c-0.7884,-5.3074 0.2439,-10.0151 3.8145,-14.1031z"/></g></g><path d="M247.85,197.85c0,0 0.109,3.016 -0.1,4.5c-0.096,0.68 -0.8,1.9 -0.8,1.9" fill="none" stroke="#007fdf" stroke-width="2" stroke-linecap="round"/></g><path d="M210.598,123.559c3.4057,-24.7998 22.3672,-42.6811 42.3521,-39.9377c18.95688,2.60229 32.02662,22.82921 30.41514,46.06958c-11.51936,0.0599 -23.0384,0.05988 -34.55948,0.05988c-12.83726,0 -25.67451,0 -38.51177,0c-0.07123,-2.06882 0.0222,-4.13825 0.30401,-6.19176z" fill="url(#color-2)" stroke="none" stroke-width="1" stroke-linecap="butt"/><path d="M283.3678,138.6385c-3.4047,24.7997 -33.0129,42.6341 -41.9529,42.3247c-8.61657,-0.29776 -28.42459,-21.51968 -30.56051,-43.56964c12.78232,0 25.56464,0 38.34697,0c11.44465,0 22.88728,0 34.33021,-0.05867c-0.04944,0.43371 -0.10401,0.86828 -0.16377,1.30361z" fill="url(#color-3)" stroke="none" stroke-width="1" stroke-linecap="butt"/></g></g></svg>